Coordinates
nRows=153
nColumns=2
inDegrees=yes
endheader
time	ankle_angle_r	
2.25	  9.353459	
2.3125	  9.291967	
2.375	  9.270855	
2.4375	  9.266174	
2.5	  9.256988	
2.5625	  9.279799	
2.625	  9.285350	
2.6875	  9.244965	
2.75	  9.238087	
2.8125	  9.266351	
2.875	  9.278696	
2.9375	  9.269094	
3	  9.267179	
3.0625	  9.277458	
3.125	  9.249048	
3.1875	  9.195564	
3.25	  9.204020	
3.3125	  9.265761	
3.375	  9.288780	
3.4375	  9.270512	
3.5	  9.251255	
3.5625	  9.214558	
3.625	  9.209399	
3.6875	  9.278281	
3.75	  9.329181	
3.8125	  9.334204	
3.875	  9.328554	
3.9375	  9.311202	
4	  9.313340	
4.0625	  9.328054	
4.125	  9.333225	
4.1875	  9.340316	
4.25	  9.342830	
4.3125	  9.353956	
4.375	  9.373962	
4.4375	  9.375989	
4.5	  9.352814	
4.5625	  9.311177	
4.625	  9.279569	
4.6875	  9.280919	
4.75	  9.291587	
4.8125	  9.270325	
4.875	  9.244291	
4.9375	  9.267958	
5	  9.288326	
5.0625	  9.267234	
5.125	  9.263846	
5.1875	  9.277768	
5.25	  9.287789	
5.3125	  9.294880	
5.375	  9.288658	
5.4375	  9.303529	
5.5	  9.322777	
5.5625	  9.296183	
5.625	  9.260328	
5.6875	  9.258831	
5.75	  9.288297	
5.8125	  9.311249	
5.875	  9.325062	
5.9375	  9.353481	
6	  9.367802	
6.0625	  9.353508	
6.125	  9.327979	
6.1875	  9.327559	
6.25	  9.367116	
6.3125	  9.387819	
6.375	  9.376450	
6.4375	  9.361857	
6.5	  9.341479	
6.5625	  9.324989	
6.625	  9.325650	
6.6875	  9.347496	
6.75	  9.352183	
6.8125	  9.314493	
6.875	  9.293786	
6.9375	  9.289734	
7	  9.266604	
7.0625	  9.253765	
7.125	  9.254339	
7.1875	  9.256165	
7.25	  9.254218	
7.3125	  9.257345	
7.375	  9.290365	
7.4375	  9.323876	
7.5	  9.332032	
7.5625	  9.327620	
7.625	  9.325023	
7.6875	  9.331463	
7.75	  9.338170	
7.8125	  9.360366	
7.875	  9.378173	
7.9375	  9.343184	
8	  9.306359	
8.0625	  9.315120	
8.125	  9.344297	
8.1875	  9.369407	
8.25	  9.363820	
8.3125	  9.325732	
8.375	  9.275826	
8.4375	  9.242417	
8.5	  9.228851	
8.5625	  9.213857	
8.625	  9.240409	
8.6875	  9.278364	
8.75	  9.242303	
8.8125	  9.192485	
8.875	  9.176182	
8.9375	  9.162720	
9	  9.153722	
9.0625	  9.180119	
9.125	  9.247071	
9.1875	  9.299234	
9.25	  9.322723	
9.3125	  9.332989	
9.375	  9.327205	
9.4375	  9.321870	
9.5	  9.314161	
9.5625	  9.318922	
9.625	  9.343413	
9.6875	  9.358067	
9.75	  9.364490	
9.8125	  9.355406	
9.875	  9.340059	
9.9375	  9.336644	
10	  9.331023	
10.0625	  9.345248	
10.125	  9.370754	
10.1875	  9.374155	
10.25	  9.365364	
10.3125	  9.348045	
10.375	  9.335966	
10.4375	  9.335450	
10.5	  9.349686	
10.5625	  9.372822	
10.625	  9.365702	
10.6875	  9.352289	
10.75	  9.349657	
10.8125	  9.338529	
10.875	  9.336707	
10.9375	  9.322607	
11	  9.316449	
11.0625	  9.343818	
11.125	  9.335038	
11.1875	  9.295395	
11.25	  9.257662	
11.3125	  9.233851	
11.375	  9.254520	
11.4375	  9.273730	
11.5	  9.264107	
11.5625	  9.253122	
11.625	  9.243388	
11.6875	  9.230305	
11.75	  9.202357	
